<svg width="22" height="23" viewBox="0 0 22 23" fill="none" xmlns="http://www.w3.org/2000/svg">
<g clip-path="url(#clip0_233_1625)">
<path fill-rule="evenodd" clip-rule="evenodd" d="M11 11.5C8.5734 11.5 6.6 9.4369 6.6 6.9C6.6 4.3631 8.5734 2.3 11 2.3C13.4266 2.3 15.4 4.3631 15.4 6.9C15.4 9.4369 13.4266 11.5 11 11.5ZM15.1338 12.2739C16.6364 11.0101 17.6 9.0735 17.6 6.9C17.6 3.0889 14.6454 0 11 0C7.3546 0 4.4 3.0889 4.4 6.9C4.4 9.0735 5.36361 11.0101 6.86621 12.2739C2.84131 13.8552 0 17.7617 0 23H2.2C2.2 17.25 6.1479 13.8 11 13.8C15.8521 13.8 19.8 17.25 19.8 23H22C22 17.7617 19.1587 13.8552 15.1338 12.2739Z" fill="black"/>
</g>
<defs>
<clipPath id="clip0_233_1625">
<rect width="22" height="23" fill="white"/>
</clipPath>
</defs>
</svg>
