<svg width="29" height="30" viewBox="0 0 29 30" fill="none" xmlns="http://www.w3.org/2000/svg">
<g clip-path="url(#clip0_233_1627)">
<path d="M25.375 15.625H18.125V16.875H25.375V15.625Z" fill="black"/>
<path d="M25.375 11.875H14.5V13.125H25.375V11.875Z" fill="black"/>
<path d="M26.5833 1.875H2.41667C1.08747 1.875 0 2.99997 0 4.375V20.625C0 22 1.08747 23.125 2.41667 23.125H4.83333V28.125L7.85413 25L10.8749 28.125V23.125H26.5833C27.9125 23.125 29 22 29 20.625V4.375C29 2.99997 27.9125 1.875 26.5833 1.875ZM9.66667 25.1249L7.85413 23.2499L6.0416 25.1249V20.25C6.64574 20.5 7.24994 20.6249 7.85413 20.6249C8.45833 20.6249 9.06247 20.5 9.66667 20.25V25.1249ZM7.85413 19.375C6.16247 19.375 4.83333 18 4.83333 16.25C4.83333 14.5 6.16253 13.1251 7.85413 13.1251C9.54574 13.1251 10.8749 14.5 10.8749 16.25C10.8749 18 9.5458 19.375 7.85413 19.375ZM27.7917 20.6249C27.7917 21.3749 27.3083 21.8749 26.5833 21.8749H10.875V19.25C11.6 18.4999 12.0833 17.3749 12.0833 16.25C12.0833 13.875 10.15 11.8749 7.85413 11.8749C5.55827 11.8749 3.62494 13.8749 3.62494 16.25C3.62494 17.5 4.10827 18.5 4.83327 19.25V21.8749H2.41667C1.69167 21.8749 1.20833 21.25 1.20833 20.6249V4.375C1.20833 3.625 1.69167 3.125 2.41667 3.125H26.5833C27.3083 3.125 27.7917 3.74997 27.7917 4.375V20.6249Z" fill="black" stroke="black" stroke-width="0.5"/>
<path d="M25.375 8.125H3.625V9.375H25.375V8.125Z" fill="black"/>
</g>
<defs>
<clipPath id="clip0_233_1627">
<rect width="29" height="30" fill="white"/>
</clipPath>
</defs>
</svg>
