<svg width="24" height="25" viewBox="0 0 24 25" fill="none" xmlns="http://www.w3.org/2000/svg">
<g clip-path="url(#clip0_203_694)">
<path d="M12 24.9025C8.8174 24.9025 5.76516 23.6382 3.51472 21.3877C1.26428 19.1373 0 16.0851 0 12.9025C0 9.71987 1.26428 6.66762 3.51472 4.41718C5.76516 2.16675 8.8174 0.902466 12 0.902466C15.1826 0.902466 18.2348 2.16675 20.4853 4.41718C22.7357 6.66762 24 9.71987 24 12.9025C24 16.0851 22.7357 19.1373 20.4853 21.3877C18.2348 23.6382 15.1826 24.9025 12 24.9025ZM12 22.5025C14.5461 22.5025 16.9879 21.491 18.7882 19.6907C20.5886 17.8903 21.6 15.4485 21.6 12.9025C21.6 10.3564 20.5886 7.91459 18.7882 6.11424C16.9879 4.31389 14.5461 3.30247 12 3.30247C9.45392 3.30247 7.01212 4.31389 5.21178 6.11424C3.41143 7.91459 2.4 10.3564 2.4 12.9025C2.4 15.4485 3.41143 17.8903 5.21178 19.6907C7.01212 21.491 9.45392 22.5025 12 22.5025ZM18 11.7025V14.1025H6V11.7025H18Z" fill="black"/>
</g>
<defs>
<clipPath id="clip0_203_694">
<rect width="24" height="24" fill="white" transform="translate(0 0.902466)"/>
</clipPath>
</defs>
</svg>
