<svg width="158" height="177" viewBox="0 0 158 177" fill="none" xmlns="http://www.w3.org/2000/svg">
<path d="M33.0419 154.875C27.4814 154.875 23.5303 152.08 21.1884 146.49C18.8464 140.899 19.4177 135.705 22.9023 130.906L59.2085 81.125V36.875H52.6669C50.8134 36.875 49.2608 36.167 48.0092 34.751C46.7575 33.335 46.1295 31.5847 46.1252 29.5C46.1208 27.4153 46.7488 25.665 48.0092 24.249C49.2695 22.833 50.8221 22.125 52.6669 22.125H105C106.854 22.125 108.408 22.833 109.664 24.249C110.92 25.665 111.546 27.4153 111.542 29.5C111.537 31.5847 110.909 33.3375 109.658 34.7584C108.406 36.1793 106.854 36.8848 105 36.875H98.4585V81.125L134.765 130.906C138.254 135.7 138.827 140.894 136.485 146.49C134.143 152.085 130.19 154.88 124.625 154.875H33.0419Z" fill="white"/>
</svg>
