<svg width="166" height="177" viewBox="0 0 166 177" fill="none" xmlns="http://www.w3.org/2000/svg">
<path d="M90.0624 57.1858C90.0624 55.7188 90.6057 54.3119 91.5727 53.2746C92.5396 52.2373 93.8512 51.6545 95.2187 51.6545H131.189C132.208 51.6555 133.204 51.9804 134.051 52.5882C134.898 53.1961 135.558 54.0596 135.948 55.0697C136.338 56.0798 136.44 57.1912 136.242 58.2635C136.043 59.3358 135.553 60.321 134.832 61.0945L115.747 81.5749C119.529 82.2903 123.014 83.4408 126.005 85.137C132.227 88.6549 136.345 94.6065 136.345 102.97C136.345 110.094 133.107 115.876 128.287 119.711C123.564 123.48 117.377 125.39 110.956 125.39C101.557 125.39 95.3218 121.496 92.6199 119.814C91.4375 119.076 90.5769 117.864 90.2275 116.445C89.8781 115.026 90.0685 113.516 90.7568 112.248C91.4451 110.979 92.575 110.056 93.8978 109.681C95.2206 109.306 96.6281 109.511 97.8105 110.249C100.086 111.672 104.362 114.327 110.956 114.327C115.582 114.327 119.501 112.941 122.141 110.839C124.685 108.811 126.032 106.156 126.032 102.97C126.032 99.2823 124.527 96.8043 121.199 94.9236C117.501 92.8291 111.746 91.6565 104.211 91.6565C103.192 91.6556 102.196 91.3306 101.349 90.7228C100.502 90.1149 99.8416 89.2514 99.4517 88.2413C99.0618 87.2312 98.9597 86.1198 99.1583 85.0475C99.3569 83.9752 99.8472 82.9901 100.567 82.2165L118.738 62.717H95.2187C93.8512 62.717 92.5396 62.1343 91.5727 61.0969C90.6057 60.0596 90.0624 58.6527 90.0624 57.1858ZM54.8418 112.211C52.7919 111.953 50.7191 112.408 48.9291 113.511C47.1391 114.613 45.7268 116.303 44.9005 118.332C44.3261 119.641 43.2964 120.656 42.0323 121.161C40.7681 121.665 39.3701 121.617 38.138 121.029C36.906 120.44 35.9379 119.358 35.4413 118.012C34.9448 116.667 34.9593 115.167 35.4818 113.833C37.2004 109.656 40.1203 106.178 43.8141 103.908C47.508 101.639 51.782 100.698 56.0105 101.222C60.0599 101.664 63.8412 103.604 66.7149 106.702C69.6987 109.991 71.4243 114.504 71.4243 119.814C71.4243 131.917 62.803 137.787 56.8493 141.836C53.1505 144.351 48.7368 146.954 46.5712 151.224H67.698C69.0656 151.224 70.3771 151.807 71.3441 152.844C72.3111 153.882 72.8543 155.289 72.8543 156.756C72.8543 158.223 72.3111 159.63 71.3441 160.667C70.3771 161.704 69.0656 162.287 67.698 162.287H40.198C38.8305 162.287 37.519 161.704 36.552 160.667C35.585 159.63 35.0418 158.223 35.0418 156.756C35.0418 143.488 44.2337 137.359 50.4624 133.082C57.5574 128.222 61.1187 125.478 61.1187 119.807C61.1187 117.189 60.3212 115.5 59.3312 114.408C58.117 113.145 56.5271 112.369 54.8418 112.211ZM56.4505 15.4433C57.2551 15.9223 57.9254 16.6236 58.392 17.4743C58.8587 18.325 59.1046 19.2942 59.1043 20.2813V66.375H67.7118C69.0793 66.375 70.3908 66.9578 71.3578 67.9951C72.3248 69.0324 72.868 70.4393 72.868 71.9063C72.868 73.3732 72.3248 74.7801 71.3578 75.8174C70.3908 76.8548 69.0793 77.4375 67.7118 77.4375H40.198C38.8305 77.4375 37.519 76.8548 36.552 75.8174C35.585 74.7801 35.0418 73.3732 35.0418 71.9063C35.0418 70.4393 35.585 69.0324 36.552 67.9951C37.519 66.9578 38.8305 66.375 40.198 66.375H48.7918V30.2596L42.9274 34.1905C41.7678 34.968 40.3677 35.2195 39.0352 34.8896C37.7027 34.5598 36.5469 33.6756 35.8221 32.4316C35.0973 31.1876 34.8629 29.6857 35.1704 28.2562C35.4779 26.8268 36.3021 25.587 37.4618 24.8095L51.2118 15.5908C51.993 15.0662 52.8911 14.7758 53.8124 14.7498C54.7338 14.7239 55.6447 14.9633 56.4505 15.4433Z" fill="white"/>
</svg>
