<svg width="143" height="177" viewBox="0 0 143 177" fill="none" xmlns="http://www.w3.org/2000/svg">
<path d="M65.5417 44.25H119.167M65.5417 88.5H119.167M65.5417 132.75H119.167M23.8334 73.75V40.5625C23.8334 37.6285 24.775 34.8148 26.4511 32.7401C28.1272 30.6655 30.4005 29.5 32.7709 29.5C35.1412 29.5 37.4145 30.6655 39.0906 32.7401C40.7667 34.8148 41.7084 37.6285 41.7084 40.5625V73.75M23.8334 59H41.7084M32.7709 125.375C35.1412 125.375 37.4145 126.541 39.0906 128.615C40.7667 130.69 41.7084 133.504 41.7084 136.438C41.7084 139.371 40.7667 142.185 39.0906 144.26C37.4145 146.334 35.1412 147.5 32.7709 147.5H23.8334V103.25H32.7709C35.1412 103.25 37.4145 104.416 39.0906 106.49C40.7667 108.565 41.7084 111.379 41.7084 114.312C41.7084 117.246 40.7667 120.06 39.0906 122.135C37.4145 124.209 35.1412 125.375 32.7709 125.375ZM32.7709 125.375H23.8334" stroke="white" stroke-width="8" stroke-linecap="round" stroke-linejoin="round"/>
</svg>
